HIERARCHY
ROOT Hips
{
  OFFSET 5.80788e-005 67.184 3.4734
  CHANNELS 6 Xposition Yposition Zposition Zrotation Xrotation Yrotation
  JOINT Chest
  {
    OFFSET 0 8.7983 -4.7612
    CHANNELS 3 Zrotation Xrotation Yrotation
    JOINT Chest2
    {
      OFFSET 0 8.0291 0.4195
      CHANNELS 3 Zrotation Xrotation Yrotation
      JOINT Chest3
      {
        OFFSET 0 9.9351 -2.2114
        CHANNELS 3 Zrotation Xrotation Yrotation
        JOINT Neck
        {
          OFFSET 0 22.3885 -0.4656
          CHANNELS 3 Zrotation Xrotation Yrotation
          JOINT Head
          {
            OFFSET -0.0001 12.643 3.4389
            CHANNELS 3 Zrotation Xrotation Yrotation
            End Site
            {
              OFFSET 0.0001 17.6655 0.5274
            }
          }
        }
        JOINT LeftCollar
        {
          OFFSET 2.2603 21.606 7.4023
          CHANNELS 3 Zrotation Xrotation Yrotation
          JOINT LeftShoulder
          {
            OFFSET 13.5163 -1.1332 -5.0146
            CHANNELS 3 Zrotation Xrotation Yrotation
            JOINT LeftElbow
            {
              OFFSET -0.0995 -28.05 -0.2431
              CHANNELS 3 Zrotation Xrotation Yrotation
              JOINT LeftWrist
              {
                OFFSET 0.0679 -23.3996 -0.1402
                CHANNELS 3 Zrotation Xrotation Yrotation
                JOINT LeftFinger1
                {
                  OFFSET 0.7932 -9.069 2.5189
                  CHANNELS 3 Zrotation Xrotation Yrotation
                  JOINT LeftFinger11
                  {
                    OFFSET -0.8272 -3.3923 0.5977
                    CHANNELS 3 Zrotation Xrotation Yrotation
                    JOINT LeftFinger12
                    {
                      OFFSET -0.5649 -2.3158 0.4082
                      CHANNELS 3 Zrotation Xrotation Yrotation
                      End Site
                      {
                        OFFSET -0.4919 -1.6479 0.2673
                      }
                    }
                  }
                }
                JOINT LeftFinger2
                {
                  OFFSET 0.9159 -9.2044 0.2193
                  CHANNELS 3 Zrotation Xrotation Yrotation
                  JOINT LeftFinger21
                  {
                    OFFSET 0.0117 -4.1944 -0.0248
                    CHANNELS 3 Zrotation Xrotation Yrotation
                    JOINT LeftFinger22
                    {
                      OFFSET 0.0071 -2.3249 -0.0142
                      CHANNELS 3 Zrotation Xrotation Yrotation
                      End Site
                      {
                        OFFSET -0.1475 -2.0882 0.0028
                      }
                    }
                  }
                }
                JOINT LeftFinger3
                {
                  OFFSET 0.6113 -8.7231 -2.0637
                  CHANNELS 3 Zrotation Xrotation Yrotation
                  JOINT LeftFinger31
                  {
                    OFFSET -0.1927 -3.8059 -0.2383
                    CHANNELS 3 Zrotation Xrotation Yrotation
                    JOINT LeftFinger32
                    {
                      OFFSET -0.1091 -2.1688 -0.1362
                      CHANNELS 3 Zrotation Xrotation Yrotation
                      End Site
                      {
                        OFFSET -0.2358 -1.9176 -0.0906
                      }
                    }
                  }
                }
                JOINT LeftFinger4
                {
                  OFFSET -0.6151 -8.0947 -3.5641
                  CHANNELS 3 Zrotation Xrotation Yrotation
                  JOINT LeftFinger41
                  {
                    OFFSET -0.4882 -2.341 -0.6462
                    CHANNELS 3 Zrotation Xrotation Yrotation
                    JOINT LeftFinger42
                    {
                      OFFSET -0.3575 -1.7167 -0.4742
                      CHANNELS 3 Zrotation Xrotation Yrotation
                      End Site
                      {
                        OFFSET -0.4187 -1.5237 -0.3496
                      }
                    }
                  }
                }
                JOINT LeftFinger0
                {
                  OFFSET -1.42 -1.8761 1.4223
                  CHANNELS 3 Zrotation Xrotation Yrotation
                  JOINT LeftFinger01
                  {
                    OFFSET -1.1471 -3.4929 2.6334
                    CHANNELS 3 Zrotation Xrotation Yrotation
                    JOINT LeftFinger02
                    {
                      OFFSET -0.823 -2.3 1.6571
                      CHANNELS 3 Zrotation Xrotation Yrotation
                      End Site
                      {
                        OFFSET -0.5822 -1.6914 1.1582
                      }
                    }
                  }
                }
              }
            }
          }
        }
        JOINT RightCollar
        {
          OFFSET -2.2603 21.606 7.4023
          CHANNELS 3 Zrotation Xrotation Yrotation
          JOINT RightShoulder
          {
            OFFSET -13.5187 -1.1334 -5.0155
            CHANNELS 3 Zrotation Xrotation Yrotation
            JOINT RightElbow
            {
              OFFSET 0.0994 -28.0499 -0.2431
              CHANNELS 3 Zrotation Xrotation Yrotation
              JOINT RightWrist
              {
                OFFSET -0.0679 -23.3996 -0.1402
                CHANNELS 3 Zrotation Xrotation Yrotation
                JOINT RightFinger1
                {
                  OFFSET -0.7932 -9.0691 2.5189
                  CHANNELS 3 Zrotation Xrotation Yrotation
                  JOINT RightFinger11
                  {
                    OFFSET 0.8272 -3.3923 0.5977
                    CHANNELS 3 Zrotation Xrotation Yrotation
                    JOINT RightFinger12
                    {
                      OFFSET 0.565 -2.3158 0.4082
                      CHANNELS 3 Zrotation Xrotation Yrotation
                      End Site
                      {
                        OFFSET 0.4919 -1.6479 0.2673
                      }
                    }
                  }
                }
                JOINT RightFinger2
                {
                  OFFSET -0.916 -9.2044 0.2193
                  CHANNELS 3 Zrotation Xrotation Yrotation
                  JOINT RightFinger21
                  {
                    OFFSET -0.0117 -4.1944 -0.0248
                    CHANNELS 3 Zrotation Xrotation Yrotation
                    JOINT RightFinger22
                    {
                      OFFSET -0.0071 -2.3249 -0.0142
                      CHANNELS 3 Zrotation Xrotation Yrotation
                      End Site
                      {
                        OFFSET 0.1475 -2.0882 0.0028
                      }
                    }
                  }
                }
                JOINT RightFinger3
                {
                  OFFSET -0.6113 -8.7231 -2.0637
                  CHANNELS 3 Zrotation Xrotation Yrotation
                  JOINT RightFinger31
                  {
                    OFFSET 0.1927 -3.8059 -0.2383
                    CHANNELS 3 Zrotation Xrotation Yrotation
                    JOINT RightFinger32
                    {
                      OFFSET 0.1091 -2.1688 -0.1362
                      CHANNELS 3 Zrotation Xrotation Yrotation
                      End Site
                      {
                        OFFSET 0.2358 -1.9176 -0.0906
                      }
                    }
                  }
                }
                JOINT RightFinger4
                {
                  OFFSET 0.6151 -8.0947 -3.564
                  CHANNELS 3 Zrotation Xrotation Yrotation
                  JOINT RightFinger41
                  {
                    OFFSET 0.4882 -2.341 -0.6462
                    CHANNELS 3 Zrotation Xrotation Yrotation
                    JOINT RightFinger42
                    {
                      OFFSET 0.3574 -1.7166 -0.4742
                      CHANNELS 3 Zrotation Xrotation Yrotation
                      End Site
                      {
                        OFFSET 0.4187 -1.5237 -0.3496
                      }
                    }
                  }
                }
                JOINT RightFinger0
                {
                  OFFSET 1.4199 -1.8761 1.4221
                  CHANNELS 3 Zrotation Xrotation Yrotation
                  JOINT RightFinger01
                  {
                    OFFSET 1.1472 -3.4929 2.6336
                    CHANNELS 3 Zrotation Xrotation Yrotation
                    JOINT RightFinger02
                    {
                      OFFSET 0.8229 -2.3 1.6571
                      CHANNELS 3 Zrotation Xrotation Yrotation
                      End Site
                      {
                        OFFSET 0.5822 -1.6914 1.1582
                      }
                    }
                  }
                }
              }
            }
          }
        }
      }
    }
  }
  JOINT RightHip
  {
    OFFSET -9.412 3.9771 -0.7758
    CHANNELS 3 Zrotation Xrotation Yrotation
    JOINT RightKnee
    {
      OFFSET -0.7531 -40.938 0
      CHANNELS 3 Zrotation Xrotation Yrotation
      JOINT RightAnkle
      {
        OFFSET 0 -40.1986 0
        CHANNELS 3 Zrotation Xrotation Yrotation
        JOINT RightToe
        {
          OFFSET 0 -4.4182 9.239
          CHANNELS 3 Zrotation Xrotation Yrotation
          End Site
          {
            OFFSET 0 0 6.1981
          }
        }
      }
    }
  }
  JOINT LeftHip
  {
    OFFSET 9.4119 3.9773 -0.7758
    CHANNELS 3 Zrotation Xrotation Yrotation
    JOINT LeftKnee
    {
      OFFSET 0.7532 -40.9383 0
      CHANNELS 3 Zrotation Xrotation Yrotation
      JOINT LeftAnkle
      {
        OFFSET 0 -40.1986 0
        CHANNELS 3 Zrotation Xrotation Yrotation
        JOINT LeftToe
        {
          OFFSET 0 -4.4182 9.239
          CHANNELS 3 Zrotation Xrotation Yrotation
          End Site
          {
            OFFSET 0 0 6.1981
          }
        }
      }
    }
  }
}
MOTION
Frames:	6
Frame Time:	0.0333333
5.91472 23.5923 14.0299 7.07259e-007 -4.51115e-007 -41.0003 1.25149 4.82491 0.6422 2.46161 9.66248 1.18444 2.46162 9.66253 1.18442 -1.68286e-005 20.9967 4.05877e-006 3.1338 16.975 -17.9184 -36.6519 2.86156 -10.7445 57.1626 1.08411 37.6252 -30.5518 5.33756 -24.7983 19.7157 -3.36164 1.30109 -3.97569e-015 -4.77083e-015 -6.36111e-015 -7.15625e-015 -9.54166e-015 -3.18055e-015 1.59028e-015 -3.97569e-015 3.18055e-015 -3.97569e-015 -4.77083e-015 -6.36111e-015 -0.0128103 0.00232573 8.46549e-005 -7.95139e-015 3.18055e-015 -0 -3.97569e-015 -4.77083e-015 -6.36111e-015 -0.0160205 0.0029937 0.000860155 -2.38542e-015 7.95139e-016 -0 -3.97569e-015 -4.77083e-015 -6.36111e-015 -0.012596 0.0031199 0.00282336 -1.59028e-015 0 -0 -3.97569e-015 -4.77083e-015 -6.36111e-015 -7.15625e-015 -9.54166e-015 -3.18055e-015 1.59028e-015 -3.97569e-015 3.18055e-015 -3.90143 0.349472 14.519 -59.431 25.0765 -15.7571 34.2415 -46.3 -16.612 14.7755 -2.92767 -14.8862 -3.18055e-015 7.15625e-015 -6.36111e-015 5.29669e-031 4.77083e-015 -6.36111e-015 -2.21971e-006 3.72572e-008 -5.92786e-007 -3.18055e-015 7.15625e-015 -6.36111e-015 0.0129186 0.0023067 -9.0544e-005 -7.37e-007 1.5035e-007 -1.43767e-006 -3.18055e-015 7.15625e-015 -6.36111e-015 0.0163851 0.00303867 -0.000884079 -3.18055e-015 4.77083e-015 -0 -3.18055e-015 7.15625e-015 -6.36111e-015 0.0145391 0.00366415 -0.00325761 -3.84967e-006 -1.60335e-005 -8.07269e-006 -3.18055e-015 7.15625e-015 -6.36111e-015 5.29669e-031 4.77083e-015 -6.36111e-015 -2.21971e-006 3.72572e-008 -5.92786e-007 -17.3981 -19.9096 -15.034 -165.6 51.2666 168.719 -10.3394 47.1557 -12.3081 -2.296e-006 8.28e-007 1.01135e-006 17.394 -19.9102 15.0294 165.599 51.2664 -168.722 10.3382 47.1553 12.3047 0 4.77083e-015 -0 
5.91472 23.5923 14.0299 2.58061e-007 5.85626e-007 -41.0003 1.25742 4.80566 0.639844 2.47384 9.62399 1.17955 2.47386 9.62404 1.17952 -1.85407e-005 20.9967 8.30027e-006 3.1338 16.975 -17.9183 -36.6519 2.86155 -10.7445 57.1626 1.0841 37.6252 -30.3467 5.3061 -24.6643 19.7148 -3.36637 1.28775 -7.95139e-016 -1.59028e-015 3.18055e-015 -2.38542e-015 7.95139e-016 6.36111e-015 7.95139e-016 -2.38542e-015 -0 -7.95139e-016 -1.59028e-015 3.18055e-015 -0.0128242 0.00231407 9.12333e-005 -2.87557e-006 2.11732e-006 2.40691e-006 -7.95139e-016 -1.59028e-015 3.18055e-015 -0.0160982 0.0030039 0.00086983 -1.04871e-006 -1.17082e-006 -8.71731e-006 -7.95139e-016 -1.59028e-015 3.18055e-015 -0.0125918 0.0031184 0.00282393 -3.97569e-015 0 -6.36111e-015 -7.95139e-016 -1.59028e-015 3.18055e-015 -2.38542e-015 7.95139e-016 6.36111e-015 7.95139e-016 -2.38542e-015 -0 -3.87106 0.355458 14.4776 -59.2596 24.8532 -15.532 34.3368 -46.6227 -16.3145 14.8702 -2.87362 -14.7458 5.18004e-006 4.55793e-006 -3.11189e-006 3.18055e-015 3.18055e-015 -6.36111e-015 8.16712e-006 2.74719e-006 -4.63385e-006 5.18004e-006 4.55793e-006 -3.11189e-006 0.0129013 0.00231006 -8.33247e-005 2.94404e-006 5.53989e-006 -3.56345e-006 5.18004e-006 4.55793e-006 -3.11189e-006 0.0163011 0.00301718 -0.000882589 8.9459e-006 1.65649e-005 6.79068e-006 5.18004e-006 4.55793e-006 -3.11189e-006 0.014577 0.00367267 -0.00326422 5.17929e-006 3.33307e-006 -3.11134e-006 5.18004e-006 4.55793e-006 -3.11189e-006 3.18055e-015 3.18055e-015 -6.36111e-015 8.16712e-006 2.74719e-006 -4.63385e-006 -17.3981 -19.9096 -15.034 -165.6 51.2667 168.719 -10.3394 47.1558 -12.3081 6.69908e-007 4.38811e-006 -3.85733e-007 17.394 -19.9102 15.0294 165.599 51.2663 -168.722 10.3382 47.1552 12.3047 -2.04707e-006 1.22142e-006 -1.14812e-006 
5.91472 23.5923 14.0299 1.28905e-006 1.37404e-006 -41.0003 1.26334 4.7864 0.637469 2.48608 9.58548 1.17463 2.48608 9.58551 1.17465 8.30678e-006 20.9968 1.6983e-006 3.1338 16.975 -17.9184 -36.6519 2.8616 -10.7445 57.1626 1.08411 37.6252 -30.1406 5.27443 -24.5322 19.714 -3.37106 1.2745 7.95139e-016 2.38542e-015 6.36111e-015 -3.18055e-015 7.95139e-016 9.54166e-015 -3.18055e-015 7.95139e-016 9.54166e-015 7.95139e-016 2.38542e-015 6.36111e-015 -0.0127889 0.00232043 8.61014e-005 6.89171e-006 -9.85775e-007 3.28887e-006 7.95139e-016 2.38542e-015 6.36111e-015 -0.0160307 0.00299886 0.000861302 -4.77083e-015 -1.1583e-006 -0 7.95139e-016 2.38542e-015 6.36111e-015 -0.0126251 0.0031342 0.00284215 4.41391e-031 1.59028e-015 -1.59028e-014 7.95139e-016 2.38542e-015 6.36111e-015 -3.18055e-015 7.95139e-016 9.54166e-015 -3.18055e-015 7.95139e-016 9.54166e-015 -3.84066 0.361486 14.4362 -59.0872 24.6302 -15.3063 34.4352 -46.9454 -16.0141 14.9647 -2.81933 -14.6055 -1.59028e-015 1.59028e-015 -3.18055e-015 -4.41391e-032 7.95139e-016 3.18055e-015 -1.48266e-006 1.66267e-006 -8.69916e-007 -1.59028e-015 1.59028e-015 -3.18055e-015 0.0129705 0.00232583 -8.52842e-005 -6.82712e-007 6.74854e-006 6.06849e-007 -1.59028e-015 1.59028e-015 -3.18055e-015 0.0163249 0.00302721 -0.000886346 -1.48238e-006 1.70559e-006 -8.70007e-007 -1.59028e-015 1.59028e-015 -3.18055e-015 0.0145739 0.00368014 -0.00325721 -1.59028e-015 2.68786e-006 -6.36111e-015 -1.59028e-015 1.59028e-015 -3.18055e-015 -4.41391e-032 7.95139e-016 3.18055e-015 -1.48266e-006 1.66267e-006 -8.69916e-007 -17.3981 -19.9096 -15.034 -165.6 51.2666 168.719 -10.3393 47.1557 -12.3082 9.54166e-015 -4.77083e-015 -3.18055e-015 17.3939 -19.9102 15.0294 165.599 51.2664 -168.722 10.3382 47.1553 12.3047 3.53113e-031 6.36111e-015 -3.18055e-015 
5.91472 23.5923 14.0299 -1.20223e-007 2.24949e-006 -41.0003 1.26927 4.76715 0.635068 2.49831 9.547 1.16976 2.49831 9.54703 1.16976 -1.43169e-006 20.9968 -6.85485e-006 3.1338 16.975 -17.9183 -36.6519 2.86157 -10.7445 57.1626 1.08417 37.6252 -29.9335 5.24248 -24.4019 19.7131 -3.37573 1.2613 2.38542e-015 -1.59028e-015 3.18055e-015 -7.96091e-006 -1.66163e-006 2.53279e-006 -6.36111e-015 2.38542e-015 6.36111e-015 2.38542e-015 -1.59028e-015 3.18055e-015 -0.0128296 0.00232087 8.3927e-005 -3.18055e-015 7.95139e-016 -3.18055e-015 2.38542e-015 -1.59028e-015 3.18055e-015 -0.0160707 0.00299845 0.000865371 -1.59028e-015 -3.18055e-015 -3.18055e-015 2.38542e-015 -1.59028e-015 3.18055e-015 -0.0125874 0.00312265 0.00282118 -6.49508e-006 -2.38646e-006 -5.80003e-007 2.38542e-015 -1.59028e-015 3.18055e-015 -7.96091e-006 -1.66163e-006 2.53279e-006 -6.36111e-015 2.38542e-015 6.36111e-015 -3.81029 0.367391 14.3948 -58.914 24.4074 -15.08 34.5367 -47.2681 -15.7107 15.0591 -2.76483 -14.4653 4.08366e-007 -1.07561e-005 8.41559e-007 5.20654e-006 3.16281e-006 -2.93411e-006 1.59028e-015 -1.59028e-015 9.54166e-015 4.08366e-007 -1.07561e-005 8.41559e-007 0.0129169 0.00231154 -8.81854e-005 1.59028e-015 -3.97569e-015 -3.18055e-015 4.08366e-007 -1.07561e-005 8.41559e-007 0.0163578 0.00304206 -0.000875943 3.18055e-015 9.54166e-015 -0 4.08366e-007 -1.07561e-005 8.41559e-007 0.0145384 0.00366908 -0.00326141 1.57487e-006 -5.74953e-006 1.07697e-006 4.08366e-007 -1.07561e-005 8.41559e-007 5.20654e-006 3.16281e-006 -2.93411e-006 1.59028e-015 -1.59028e-015 9.54166e-015 -17.3981 -19.9096 -15.034 -165.6 51.2666 168.719 -10.3393 47.1557 -12.3082 -5.77918e-006 1.18986e-006 -3.47562e-006 17.3939 -19.9102 15.0294 165.599 51.2664 -168.722 10.3382 47.1552 12.3047 4.38283e-006 6.70882e-006 3.23747e-006 
5.91472 23.5923 14.0299 1.80567e-007 2.04518e-007 -41.0003 1.27519 4.74788 0.632709 2.51052 9.50848 1.16489 2.51052 9.5085 1.16488 5.96544e-006 20.9968 9.39266e-006 3.13381 16.975 -17.9184 -36.6519 2.86161 -10.7445 57.1626 1.08411 37.6252 -29.7252 5.21041 -24.2734 19.7123 -3.38036 1.24819 -8.57521e-007 -1.66082e-006 -1.68642e-006 3.97569e-015 1.59028e-015 3.18055e-015 5.56597e-015 -7.95139e-016 -3.18055e-015 -8.57521e-007 -1.66082e-006 -1.68642e-006 -0.0128043 0.00232239 8.13706e-005 -7.95139e-016 1.59028e-015 9.54166e-015 -8.57521e-007 -1.66082e-006 -1.68642e-006 -0.0160292 0.00299536 0.000857518 -7.15625e-015 1.59028e-015 6.36111e-015 -8.57521e-007 -1.66082e-006 -1.68642e-006 -0.0125978 0.00313249 0.00282665 -7.95139e-016 -3.18055e-015 -6.36111e-015 -8.57521e-007 -1.66082e-006 -1.68642e-006 3.97569e-015 1.59028e-015 3.18055e-015 5.56597e-015 -7.95139e-016 -3.18055e-015 -3.77989 0.373363 14.3533 -58.7398 24.1849 -14.853 34.6416 -47.5909 -15.4041 15.1533 -2.71012 -14.3253 3.37772e-006 9.69859e-006 8.39868e-007 -6.88075e-006 -1.69345e-005 -1.23455e-005 -2.17831e-006 1.36973e-006 -2.14451e-006 3.37772e-006 9.69859e-006 8.39868e-007 0.0129737 0.00231167 -8.62082e-005 7.36792e-007 6.60556e-006 -9.15027e-006 3.37772e-006 9.69859e-006 8.39868e-007 0.0163103 0.00301828 -0.000882814 -3.83972e-006 4.89517e-006 1.57287e-007 3.37772e-006 9.69859e-006 8.39868e-007 0.0145606 0.00368022 -0.00324915 -7.44694e-006 -1.68755e-005 -1.33944e-005 3.37772e-006 9.69859e-006 8.39868e-007 -6.88075e-006 -1.69345e-005 -1.23455e-005 -2.17831e-006 1.36973e-006 -2.14451e-006 -17.3981 -19.9096 -15.034 -165.6 51.2666 168.719 -10.3394 47.1557 -12.3081 4.87645e-007 -1.62124e-007 1.47181e-006 17.394 -19.9102 15.0294 165.599 51.2664 -168.722 10.3382 47.1553 12.3047 -0 -1.27222e-014 -0 
5.91472 23.5923 14.0299 0 0 -41.0003 1.28111 4.72863 0.630358 2.52274 9.46996 1.16002 2.52275 9.47 1.16001 -1.01244e-005 20.9968 1.54325e-005 3.13381 16.975 -17.9183 -36.6519 2.86159 -10.7445 57.1626 1.0841 37.6253 -29.516 5.17807 -24.1468 19.7115 -3.38496 1.23518 3.18055e-015 1.59028e-015 6.36111e-015 3.18055e-015 2.38542e-015 6.36111e-015 -2.38542e-015 -7.95139e-016 6.36111e-015 3.18055e-015 1.59028e-015 6.36111e-015 -0.0128536 0.00231768 9.63724e-005 -1.59028e-015 3.97569e-015 6.36111e-015 3.18055e-015 1.59028e-015 6.36111e-015 -0.0160698 0.00299667 0.000861801 7.95139e-016 3.18055e-015 3.18055e-015 3.18055e-015 1.59028e-015 6.36111e-015 -0.0126066 0.00312755 0.00284251 -8.27943e-007 -2.84592e-006 -5.43163e-006 3.18055e-015 1.59028e-015 6.36111e-015 3.18055e-015 2.38542e-015 6.36111e-015 -2.38542e-015 -7.95139e-016 6.36111e-015 -3.74951 0.379246 14.3119 -58.5648 23.9627 -14.6253 34.7498 -47.9137 -15.0944 15.2474 -2.6552 -14.1853 6.47641e-006 5.26154e-006 -2.32005e-006 -4.41391e-032 7.95139e-016 3.18055e-015 -1.32417e-031 -2.38542e-015 -3.18055e-015 6.47641e-006 5.26154e-006 -2.32005e-006 0.0129789 0.00231907 -8.28264e-005 -1.59028e-015 -4.77083e-015 -3.18055e-015 6.47641e-006 5.26154e-006 -2.32005e-006 0.0163298 0.00303754 -0.000867517 6.17947e-031 1.11319e-014 -3.18055e-015 6.47641e-006 5.26154e-006 -2.32005e-006 0.0146114 0.00368713 -0.00327071 -3.18055e-015 1.03368e-014 -6.36111e-015 6.47641e-006 5.26154e-006 -2.32005e-006 -4.41391e-032 7.95139e-016 3.18055e-015 -1.32417e-031 -2.38542e-015 -3.18055e-015 -17.3981 -19.9096 -15.034 -165.6 51.2667 168.719 -10.3394 47.1557 -12.3081 -2.66911e-006 8.20997e-006 2.77166e-006 17.394 -19.9102 15.0294 165.599 51.2663 -168.722 10.3382 47.1553 12.3047 3.18055e-015 -5.217e-006 -6.36111e-015 
